<svg xmlns="http://www.w3.org/2000/svg" width="70.426" height="51.426" viewBox="0 0 70.426 51.426"><g transform="translate(-83 -147)"><g transform="translate(101 147)"><path d="M26.426,13.213a13.237,13.237,0,1,1-4.268-9.724A13.213,13.213,0,0,1,26.426,13.213Z" transform="translate(0)" fill="#f0cd00"/><path d="M41.709,13.355a13.212,13.212,0,0,1-12.721,13.2,13.213,13.213,0,0,1,0-26.407A13.212,13.212,0,0,1,41.709,13.355Z" transform="translate(-15.283 -0.142)" fill="#ffde50"/><path d="M50.362,31.7,31.693,50.371a13.27,13.27,0,0,1-1.673-2.257L48.105,30.028A13.208,13.208,0,0,1,50.362,31.7Z" transform="translate(-28.204 -28.212)" fill="#ffea94"/><path d="M103.766,86.634,86.634,103.767a13.2,13.2,0,0,1-3.345-1.922l18.556-18.556A13.171,13.171,0,0,1,103.766,86.634Z" transform="translate(-78.252 -78.252)" fill="#ffea94"/><path d="M69.247,58.979a10.267,10.267,0,0,1-20.533.126c0-.042,0-.084,0-.126A10.267,10.267,0,0,1,58.979,48.712h.127a10.219,10.219,0,0,1,5.788,1.872,10.335,10.335,0,0,1,2.829,3.009A10.218,10.218,0,0,1,69.247,58.979Z" transform="translate(-45.766 -45.766)" fill="#faa300"/><path d="M66.239,51.719l-14.52,14.52a10.23,10.23,0,0,1-3.006-7.133c0-.042,0-.084,0-.126A10.267,10.267,0,0,1,58.979,48.712h.127a10.219,10.219,0,0,1,5.788,1.872A10.362,10.362,0,0,1,66.239,51.719Z" transform="translate(-45.766 -45.766)" fill="#ffbd00"/><path d="M219.755,58.979a10.267,10.267,0,0,1-10.267,10.267q-.292,0-.58-.016a10.267,10.267,0,0,0,0-20.5q.288-.016.58-.016A10.267,10.267,0,0,1,219.755,58.979Z" transform="translate(-196.275 -45.766)" fill="#f68e00"/><g transform="translate(5 5)"><path d="M8.787,1,6.664,6.664,1,8.787l5.664,2.124,2.124,5.664,2.124-5.664,5.664-2.124L10.911,6.664Z" transform="translate(-1 -0.5)" fill="#f68e00"/><path d="M8.787,1,6.664,6.664,1,8.787l5.664,2.124,2.124,5.664,2.124-5.664,5.664-2.124L10.911,6.664Z" transform="translate(-0.5 -1)" fill="#fff3c2"/></g></g><g transform="translate(127 170)"><path d="M26.426,13.213a13.237,13.237,0,1,1-4.268-9.724A13.213,13.213,0,0,1,26.426,13.213Z" transform="translate(0)" fill="#f0cd00"/><path d="M41.709,13.355a13.212,13.212,0,0,1-12.721,13.2,13.213,13.213,0,0,1,0-26.407A13.212,13.212,0,0,1,41.709,13.355Z" transform="translate(-15.283 -0.142)" fill="#ffde50"/><path d="M50.362,31.7,31.693,50.371a13.27,13.27,0,0,1-1.673-2.257L48.105,30.028A13.208,13.208,0,0,1,50.362,31.7Z" transform="translate(-28.204 -28.212)" fill="#ffea94"/><path d="M103.766,86.634,86.634,103.767a13.2,13.2,0,0,1-3.345-1.922l18.556-18.556A13.171,13.171,0,0,1,103.766,86.634Z" transform="translate(-78.252 -78.252)" fill="#ffea94"/><path d="M69.247,58.979a10.267,10.267,0,0,1-20.533.126c0-.042,0-.084,0-.126A10.267,10.267,0,0,1,58.979,48.712h.127a10.219,10.219,0,0,1,5.788,1.872,10.335,10.335,0,0,1,2.829,3.009A10.218,10.218,0,0,1,69.247,58.979Z" transform="translate(-45.766 -45.766)" fill="#faa300"/><path d="M66.239,51.719l-14.52,14.52a10.23,10.23,0,0,1-3.006-7.133c0-.042,0-.084,0-.126A10.267,10.267,0,0,1,58.979,48.712h.127a10.219,10.219,0,0,1,5.788,1.872A10.362,10.362,0,0,1,66.239,51.719Z" transform="translate(-45.766 -45.766)" fill="#ffbd00"/><path d="M219.755,58.979a10.267,10.267,0,0,1-10.267,10.267q-.292,0-.58-.016a10.267,10.267,0,0,0,0-20.5q.288-.016.58-.016A10.267,10.267,0,0,1,219.755,58.979Z" transform="translate(-196.275 -45.766)" fill="#f68e00"/><g transform="translate(5 5)"><path d="M8.787,1,6.664,6.664,1,8.787l5.664,2.124,2.124,5.664,2.124-5.664,5.664-2.124L10.911,6.664Z" transform="translate(-1 -0.5)" fill="#f68e00"/><path d="M8.787,1,6.664,6.664,1,8.787l5.664,2.124,2.124,5.664,2.124-5.664,5.664-2.124L10.911,6.664Z" transform="translate(-0.5 -1)" fill="#fff3c2"/></g></g><g transform="translate(125 149)"><path d="M26.426,13.213a13.237,13.237,0,1,1-4.268-9.724A13.213,13.213,0,0,1,26.426,13.213Z" transform="translate(0)" fill="#f0cd00"/><path d="M41.709,13.355a13.212,13.212,0,0,1-12.721,13.2,13.213,13.213,0,0,1,0-26.407A13.212,13.212,0,0,1,41.709,13.355Z" transform="translate(-15.283 -0.142)" fill="#ffde50"/><path d="M50.362,31.7,31.693,50.371a13.27,13.27,0,0,1-1.673-2.257L48.105,30.028A13.208,13.208,0,0,1,50.362,31.7Z" transform="translate(-28.204 -28.212)" fill="#ffea94"/><path d="M103.766,86.634,86.634,103.767a13.2,13.2,0,0,1-3.345-1.922l18.556-18.556A13.171,13.171,0,0,1,103.766,86.634Z" transform="translate(-78.252 -78.252)" fill="#ffea94"/><path d="M69.247,58.979a10.267,10.267,0,0,1-20.533.126c0-.042,0-.084,0-.126A10.267,10.267,0,0,1,58.979,48.712h.127a10.219,10.219,0,0,1,5.788,1.872,10.335,10.335,0,0,1,2.829,3.009A10.218,10.218,0,0,1,69.247,58.979Z" transform="translate(-45.766 -45.766)" fill="#faa300"/><path d="M66.239,51.719l-14.52,14.52a10.23,10.23,0,0,1-3.006-7.133c0-.042,0-.084,0-.126A10.267,10.267,0,0,1,58.979,48.712h.127a10.219,10.219,0,0,1,5.788,1.872A10.362,10.362,0,0,1,66.239,51.719Z" transform="translate(-45.766 -45.766)" fill="#ffbd00"/><path d="M219.755,58.979a10.267,10.267,0,0,1-10.267,10.267q-.292,0-.58-.016a10.267,10.267,0,0,0,0-20.5q.288-.016.58-.016A10.267,10.267,0,0,1,219.755,58.979Z" transform="translate(-196.275 -45.766)" fill="#f68e00"/><g transform="translate(5 5)"><path d="M8.787,1,6.664,6.664,1,8.787l5.664,2.124,2.124,5.664,2.124-5.664,5.664-2.124L10.911,6.664Z" transform="translate(-1 -0.5)" fill="#f68e00"/><path d="M8.787,1,6.664,6.664,1,8.787l5.664,2.124,2.124,5.664,2.124-5.664,5.664-2.124L10.911,6.664Z" transform="translate(-0.5 -1)" fill="#fff3c2"/></g></g><g transform="translate(114 165)"><path d="M26.426,13.213a13.237,13.237,0,1,1-4.268-9.724A13.213,13.213,0,0,1,26.426,13.213Z" transform="translate(0)" fill="#f0cd00"/><path d="M41.709,13.355a13.212,13.212,0,0,1-12.721,13.2,13.213,13.213,0,0,1,0-26.407A13.212,13.212,0,0,1,41.709,13.355Z" transform="translate(-15.283 -0.142)" fill="#ffde50"/><path d="M50.362,31.7,31.693,50.371a13.27,13.27,0,0,1-1.673-2.257L48.105,30.028A13.208,13.208,0,0,1,50.362,31.7Z" transform="translate(-28.204 -28.212)" fill="#ffea94"/><path d="M103.766,86.634,86.634,103.767a13.2,13.2,0,0,1-3.345-1.922l18.556-18.556A13.171,13.171,0,0,1,103.766,86.634Z" transform="translate(-78.252 -78.252)" fill="#ffea94"/><path d="M69.247,58.979a10.267,10.267,0,0,1-20.533.126c0-.042,0-.084,0-.126A10.267,10.267,0,0,1,58.979,48.712h.127a10.219,10.219,0,0,1,5.788,1.872,10.335,10.335,0,0,1,2.829,3.009A10.218,10.218,0,0,1,69.247,58.979Z" transform="translate(-45.766 -45.766)" fill="#faa300"/><path d="M66.239,51.719l-14.52,14.52a10.23,10.23,0,0,1-3.006-7.133c0-.042,0-.084,0-.126A10.267,10.267,0,0,1,58.979,48.712h.127a10.219,10.219,0,0,1,5.788,1.872A10.362,10.362,0,0,1,66.239,51.719Z" transform="translate(-45.766 -45.766)" fill="#ffbd00"/><path d="M219.755,58.979a10.267,10.267,0,0,1-10.267,10.267q-.292,0-.58-.016a10.267,10.267,0,0,0,0-20.5q.288-.016.58-.016A10.267,10.267,0,0,1,219.755,58.979Z" transform="translate(-196.275 -45.766)" fill="#f68e00"/><g transform="translate(5 5)"><path d="M8.787,1,6.664,6.664,1,8.787l5.664,2.124,2.124,5.664,2.124-5.664,5.664-2.124L10.911,6.664Z" transform="translate(-1 -0.5)" fill="#f68e00"/><path d="M8.787,1,6.664,6.664,1,8.787l5.664,2.124,2.124,5.664,2.124-5.664,5.664-2.124L10.911,6.664Z" transform="translate(-0.5 -1)" fill="#fff3c2"/></g></g><g transform="translate(83 160)"><path d="M26.426,13.213a13.237,13.237,0,1,1-4.268-9.724A13.213,13.213,0,0,1,26.426,13.213Z" transform="translate(0)" fill="#f0cd00"/><path d="M41.709,13.355a13.212,13.212,0,0,1-12.721,13.2,13.213,13.213,0,0,1,0-26.407A13.212,13.212,0,0,1,41.709,13.355Z" transform="translate(-15.283 -0.142)" fill="#ffde50"/><path d="M50.362,31.7,31.693,50.371a13.27,13.27,0,0,1-1.673-2.257L48.105,30.028A13.208,13.208,0,0,1,50.362,31.7Z" transform="translate(-28.204 -28.212)" fill="#ffea94"/><path d="M103.766,86.634,86.634,103.767a13.2,13.2,0,0,1-3.345-1.922l18.556-18.556A13.171,13.171,0,0,1,103.766,86.634Z" transform="translate(-78.252 -78.252)" fill="#ffea94"/><path d="M69.247,58.979a10.267,10.267,0,0,1-20.533.126c0-.042,0-.084,0-.126A10.267,10.267,0,0,1,58.979,48.712h.127a10.219,10.219,0,0,1,5.788,1.872,10.335,10.335,0,0,1,2.829,3.009A10.218,10.218,0,0,1,69.247,58.979Z" transform="translate(-45.766 -45.766)" fill="#faa300"/><path d="M66.239,51.719l-14.52,14.52a10.23,10.23,0,0,1-3.006-7.133c0-.042,0-.084,0-.126A10.267,10.267,0,0,1,58.979,48.712h.127a10.219,10.219,0,0,1,5.788,1.872A10.362,10.362,0,0,1,66.239,51.719Z" transform="translate(-45.766 -45.766)" fill="#ffbd00"/><path d="M219.755,58.979a10.267,10.267,0,0,1-10.267,10.267q-.292,0-.58-.016a10.267,10.267,0,0,0,0-20.5q.288-.016.58-.016A10.267,10.267,0,0,1,219.755,58.979Z" transform="translate(-196.275 -45.766)" fill="#f68e00"/><g transform="translate(5 5)"><path d="M8.787,1,6.664,6.664,1,8.787l5.664,2.124,2.124,5.664,2.124-5.664,5.664-2.124L10.911,6.664Z" transform="translate(-1 -0.5)" fill="#f68e00"/><path d="M8.787,1,6.664,6.664,1,8.787l5.664,2.124,2.124,5.664,2.124-5.664,5.664-2.124L10.911,6.664Z" transform="translate(-0.5 -1)" fill="#fff3c2"/></g></g><g transform="translate(99 172)"><path d="M26.426,13.213a13.237,13.237,0,1,1-4.268-9.724A13.213,13.213,0,0,1,26.426,13.213Z" transform="translate(0)" fill="#f0cd00"/><path d="M41.709,13.355a13.212,13.212,0,0,1-12.721,13.2,13.213,13.213,0,0,1,0-26.407A13.212,13.212,0,0,1,41.709,13.355Z" transform="translate(-15.283 -0.142)" fill="#ffde50"/><path d="M50.362,31.7,31.693,50.371a13.27,13.27,0,0,1-1.673-2.257L48.105,30.028A13.208,13.208,0,0,1,50.362,31.7Z" transform="translate(-28.204 -28.212)" fill="#ffea94"/><path d="M103.766,86.634,86.634,103.767a13.2,13.2,0,0,1-3.345-1.922l18.556-18.556A13.171,13.171,0,0,1,103.766,86.634Z" transform="translate(-78.252 -78.252)" fill="#ffea94"/><path d="M69.247,58.979a10.267,10.267,0,0,1-20.533.126c0-.042,0-.084,0-.126A10.267,10.267,0,0,1,58.979,48.712h.127a10.219,10.219,0,0,1,5.788,1.872,10.335,10.335,0,0,1,2.829,3.009A10.218,10.218,0,0,1,69.247,58.979Z" transform="translate(-45.766 -45.766)" fill="#faa300"/><path d="M66.239,51.719l-14.52,14.52a10.23,10.23,0,0,1-3.006-7.133c0-.042,0-.084,0-.126A10.267,10.267,0,0,1,58.979,48.712h.127a10.219,10.219,0,0,1,5.788,1.872A10.362,10.362,0,0,1,66.239,51.719Z" transform="translate(-45.766 -45.766)" fill="#ffbd00"/><path d="M219.755,58.979a10.267,10.267,0,0,1-10.267,10.267q-.292,0-.58-.016a10.267,10.267,0,0,0,0-20.5q.288-.016.58-.016A10.267,10.267,0,0,1,219.755,58.979Z" transform="translate(-196.275 -45.766)" fill="#f68e00"/><g transform="translate(5 5)"><path d="M8.787,1,6.664,6.664,1,8.787l5.664,2.124,2.124,5.664,2.124-5.664,5.664-2.124L10.911,6.664Z" transform="translate(-1 -0.5)" fill="#f68e00"/><path d="M8.787,1,6.664,6.664,1,8.787l5.664,2.124,2.124,5.664,2.124-5.664,5.664-2.124L10.911,6.664Z" transform="translate(-0.5 -1)" fill="#fff3c2"/></g></g></g></svg>