<svg xmlns="http://www.w3.org/2000/svg" xmlns:xlink="http://www.w3.org/1999/xlink" width="242.706" height="178.056" viewBox="0 0 242.706 178.056"><defs><linearGradient id="a" x1="0.5" y1="1" x2="0.5" gradientUnits="objectBoundingBox"><stop offset="0" stop-color="gray" stop-opacity="0.251"/><stop offset="0.54" stop-color="gray" stop-opacity="0.122"/><stop offset="1" stop-color="gray" stop-opacity="0.102"/></linearGradient><linearGradient id="b" x1="9.926" x2="9.926" y2="0" xlink:href="#a"/></defs><g transform="translate(0 0.001)"><path d="M181.567,257.285c-3.192.964-6.18,3.3-6.977,6.539-.912,3.723,1.191,7.476,1.5,11.3.982,12.524-16.835,21.36-14.293,33.662,1.009,4.892,5.088,8.49,9.108,11.463,6.439,4.747,13.583,8.941,21.495,10.124,12.008,1.8,24.555-3.489,36.227-.147,9.414,2.7,16.618,10.6,25.968,13.513,7.117,2.22,14.784,1.346,22.177.446,3.987-.483,8.163-1.042,11.38-3.434,5.98-4.453,6.357-13.247,10.361-19.549,6.185-9.718,19.745-11.627,31.116-9.738s22.412,6.539,33.932,6.16A15.489,15.489,0,0,0,370.686,316c2.611-1.468,4.376-4.054,5.936-6.613a107.012,107.012,0,0,0,15.517-53.174c.067-3.227-.047-6.593-1.565-9.442-1.919-3.6-5.754-5.759-9.571-7.209-9.168-3.489-19.294-4.059-28.277-7.994-8.664-3.8-15.681-10.451-23.227-16.155a123.717,123.717,0,0,0-50.956-22.693c-4.333-.837-8.831-1.435-13.137-.468-4.961,1.114-9.237,4.206-13.082,7.535-10.229,8.856-18.427,19.783-27.854,29.489a158.581,158.581,0,0,1-21.161,18.248c-3.489,2.514-7.2,5.5-11.084,7.358C188.666,256.58,185.329,256.151,181.567,257.285Z" transform="translate(-149.447 -167.081)" fill="#2d7aff" opacity="0.2"/><path d="M380.439,138.88s-9.631,12.791-2.741,27.7-12.008,38.863-12.008,38.863" transform="translate(-302.723 -127.383)" fill="none" stroke="#535461" stroke-miterlimit="10" stroke-width="2"/><path d="M423.447,99.45c-.765,3.292-4.426,5.253-4.426,5.253s-2.417-3.376-1.652-6.668,2.741-5.644,4.426-5.253S424.212,96.158,423.447,99.45Z" transform="translate(-341.413 -92.74)" fill="#8ed16f"/><ellipse cx="1.921" cy="0.72" rx="1.921" ry="0.72" transform="translate(77.737 7.681) rotate(-76.9)" fill="#8ed16f"/><ellipse cx="1.921" cy="0.72" rx="1.921" ry="0.72" transform="translate(77.737 7.681) rotate(-76.9)" opacity="0.3"/><path d="M415,158.7c-3.18,1.146-6.815-.862-6.815-.862s1.52-3.865,4.7-5.009,6.23-.748,6.815.862S418.175,157.551,415,158.7Z" transform="translate(-334.626 -137.363)" fill="#8ed16f"/><ellipse cx="1.921" cy="0.72" rx="1.921" ry="0.72" transform="matrix(0.94, -0.34, 0.34, 0.94, 77.181, 18.096)" fill="#8ed16f"/><ellipse cx="1.921" cy="0.72" rx="1.921" ry="0.72" transform="matrix(0.94, -0.34, 0.34, 0.94, 77.181, 18.096)" opacity="0.3"/><path d="M412.025,205.467c-3.18,1.146-6.815-.862-6.815-.862s1.52-3.865,4.7-5.009,6.23-.748,6.815.862S415.2,204.324,412.025,205.467Z" transform="translate(-332.396 -172.478)" fill="#8ed16f"/><ellipse cx="1.921" cy="0.72" rx="1.921" ry="0.72" transform="translate(76.478 29.923) rotate(-19.8)" fill="#8ed16f"/><ellipse cx="1.921" cy="0.72" rx="1.921" ry="0.72" transform="translate(76.478 29.923) rotate(-19.8)" opacity="0.3"/><path d="M426.935,260.338c-3.18,1.146-6.815-.862-6.815-.862s1.52-3.865,4.7-5.009,6.23-.748,6.815.862S430.115,259.2,426.935,260.338Z" transform="translate(-343.59 -213.676)" fill="#8ed16f"/><ellipse cx="1.921" cy="0.72" rx="1.921" ry="0.72" transform="translate(80.194 43.602) rotate(-19.8)" fill="#8ed16f"/><ellipse cx="1.921" cy="0.72" rx="1.921" ry="0.72" transform="translate(80.194 43.602) rotate(-19.8)" opacity="0.3"/><path d="M417.235,310.518c-3.18,1.146-6.815-.862-6.815-.862s1.52-3.865,4.7-5.009,6.23-.748,6.815.862S420.417,309.374,417.235,310.518Z" transform="translate(-336.307 -251.351)" fill="#8ed16f"/><ellipse cx="1.921" cy="0.72" rx="1.921" ry="0.72" transform="matrix(0.94, -0.34, 0.34, 0.94, 77.783, 55.897)" fill="#8ed16f"/><ellipse cx="1.921" cy="0.72" rx="1.921" ry="0.72" transform="matrix(0.94, -0.34, 0.34, 0.94, 77.783, 55.897)" opacity="0.3"/><path d="M370.2,170.339c2.347,2.432,6.5,2.243,6.5,2.243s.341-4.139-2.006-6.571-5.255-3.434-6.5-2.243S367.848,167.907,370.2,170.339Z" transform="translate(-304.181 -145.693)" fill="#8ed16f"/><ellipse cx="0.72" cy="1.921" rx="0.72" ry="1.921" transform="matrix(0.719, -0.695, 0.695, 0.719, 66.496, 21.519)" fill="#8ed16f"/><ellipse cx="0.72" cy="1.921" rx="0.72" ry="1.921" transform="matrix(0.719, -0.695, 0.695, 0.719, 66.496, 21.519)" opacity="0.3"/><path d="M364.785,325.329c2.347,2.432,6.5,2.243,6.5,2.243s.341-4.139-2.006-6.571-5.255-3.434-6.5-2.243S362.438,322.9,364.785,325.329Z" transform="translate(-300.119 -262.062)" fill="#8ed16f"/><ellipse cx="0.72" cy="1.921" rx="0.72" ry="1.921" transform="matrix(0.719, -0.695, 0.695, 0.719, 65.144, 60.144)" fill="#8ed16f"/><ellipse cx="0.72" cy="1.921" rx="0.72" ry="1.921" transform="matrix(0.719, -0.695, 0.695, 0.719, 65.144, 60.144)" opacity="0.3"/><path d="M372.171,226.231c3.025,1.51,6.87-.06,6.87-.06s-1.059-4.014-4.082-5.524-6.1-1.5-6.87.06S369.146,224.721,372.171,226.231Z" transform="translate(-304.393 -187.934)" fill="#8ed16f"/><ellipse cx="0.72" cy="1.921" rx="0.72" ry="1.921" transform="translate(67.181 35.18) rotate(-63.48)" fill="#8ed16f"/><ellipse cx="0.72" cy="1.921" rx="0.72" ry="1.921" transform="translate(67.181 35.18) rotate(-63.48)" opacity="0.3"/><path d="M377.263,280.8c3.025,1.51,6.87-.06,6.87-.06s-1.059-4.014-4.082-5.524-6.1-1.5-6.87.06S374.251,279.306,377.263,280.8Z" transform="translate(-308.217 -228.906)" fill="#8ed16f"/><ellipse cx="0.72" cy="1.921" rx="0.72" ry="1.921" transform="translate(68.45 48.78) rotate(-63.48)" fill="#8ed16f"/><ellipse cx="0.72" cy="1.921" rx="0.72" ry="1.921" transform="translate(68.45 48.78) rotate(-63.48)" opacity="0.3"/><path d="M183,249.21a42,42,0,0,1,7.66,43.692c-9.93,26.1,17.022,69.508,17.022,69.508s-.289-.042-.825-.137c-36.132-6.377-54.073-47.7-33.989-78.391C180.323,272.469,186.465,259.083,183,249.21Z" transform="translate(-151.666 -210.221)" fill="#8ed16f"/><path d="M113,534.057s20.072-3.2,21.9,14.792,38.6,20.483,38.6,20.483-.249.164-.69.458c-30.358,19.935-59.378,12.693-55.005-13.767C119.431,546.183,119.3,536.3,113,534.057Z" transform="translate(-113 -423.923)" fill="#8ed16f"/><g transform="translate(0 109.914)" opacity="0.3"><path d="M113,534.057s20.072-3.2,21.9,14.792,38.6,20.483,38.6,20.483-.249.164-.69.458c-30.358,19.935-59.378,12.693-55.005-13.767C119.431,546.183,119.3,536.3,113,534.057Z" transform="translate(-113 -533.838)" fill="#fff"/></g><ellipse cx="5.519" cy="14.4" rx="5.519" ry="14.4" transform="translate(20.73 81.112)" fill="#8ed16f"/><ellipse cx="5.519" cy="14.4" rx="5.519" ry="14.4" transform="translate(20.73 81.112)" opacity="0.3"/><ellipse cx="3.72" cy="8.28" rx="3.72" ry="8.28" transform="translate(11.405 138.732) rotate(-45)" fill="#8ed16f"/><ellipse cx="3.72" cy="8.28" rx="3.72" ry="8.28" transform="translate(11.405 138.732) rotate(-45)" opacity="0.3"/><path d="M425.271,358.2H294.613a5.953,5.953,0,0,0-5.953,5.953v76.582a5.953,5.953,0,0,0,5.953,5.953H425.271a5.953,5.953,0,0,0,5.953-5.953V364.153A5.953,5.953,0,0,0,425.271,358.2Z" transform="translate(-244.888 -292.052)" fill="url(#a)"/><rect width="139.207" height="86.405" rx="6" transform="translate(45.449 67.19)" fill="#2d7aff"/><rect width="139.207" height="15.841" transform="translate(45.449 82.31)" fill="#2d7aff"/><rect width="139.207" height="15.841" transform="translate(45.449 82.31)" opacity="0.3"/><rect width="112.806" height="7.68" transform="translate(58.651 109.913)" fill="#d6d6e3"/><circle cx="11.041" cy="11.041" r="11.041" transform="translate(56.969 125.753)" fill="#2d7aff"/><circle cx="11.041" cy="11.041" r="11.041" transform="translate(56.969 125.753)" opacity="0.3"/><path d="M822.158,223.331a2.417,2.417,0,0,0,1.064,1.346c2.29,1.513,7.269,1.191,7.867,1.191.127,0,.294.227.478.608A42.071,42.071,0,0,1,833.9,234.8c.122,1.448,1.468,8.223,3.67,10.747.067.077.135.15.2.217,2.16,2.17,4.695-.217,4.695-.217l.364-1.263c-.1.5-.217,1.079-.331,1.729-.057.326-.115.673-.169,1.029a39.428,39.428,0,0,0-.516,6.073,22.025,22.025,0,0,0,.095,2.213c.02.2.042.406.07.6a21.122,21.122,0,0,1,.164,2.7,73.423,73.423,0,0,1-1.388,12.033l.052-.017c-.032.167-.052.249-.052.249l.08-.025q-.057.371-.11.76c-.464,3.364-.73,7.55-.857,9.967a19.958,19.958,0,0,0,.169,3.818l2.432,17.122v7.974a14.078,14.078,0,0,0,.439,3.583c.792,3.013.139,13.528-.227,18.517-.1,1.361-.182,2.312-.2,2.587v.082l.07-.027v.087a1.409,1.409,0,0,1,.324-.095c-.964,1.5-2.711,3.967-4.054,4.383a4.254,4.254,0,0,0-2.026,1.343l-.035.047-.05.07a1.494,1.494,0,0,0-.292.762.838.838,0,0,1-.045-.147c-.1.556.232,1.064,1.281,1.311a8.624,8.624,0,0,0,1.856.149c3.638,0,10.095-1.119,10.807-2.322V336.7l.117.037v.037l.446.147,1.224-4.107c1.468-1.086.249-20.53,0-25-.224-4.072,2.295-20.269,2.741-23.122l-.06-.072.067-.416a1.768,1.768,0,0,1,.249.219,3.257,3.257,0,0,1,.381.563,7.531,7.531,0,0,1,.541,1.116c2.462,6.14,3.571,23.7,3.571,25.272v16.511a17.193,17.193,0,0,0,.673,4.817,20.656,20.656,0,0,1,.523,2.507c.052.331.1.66.14.974s.085.673.117.967a2.017,2.017,0,0,0,.025.222.438.438,0,0,1,0,.1c.067.65.1,1.076.1,1.076a.251.251,0,0,1,.05-.1l.012.157a.337.337,0,0,1,.1-.155,2.365,2.365,0,0,1,.329-.269v2.1l-.06-.045v.361c2.537,1.914,6.666,2.492,9.835,2.469a12.583,12.583,0,0,0,4.3-.538c.827-.406.374-1.353-.379-2.078a2.842,2.842,0,0,0-1.824-.942c-.8.087-3.546-3.02-4.984-4.722l.162-.072.229-.1v-27.53s.369-10.869,1.468-21.619a38.245,38.245,0,0,0-1.881-16.038l-.035-.1.334.052c.354.055.543.087.543.087a2.074,2.074,0,0,0-.022-.249h.022s-.429-4.662-.434-10.518c0-6.638.561-14.732,2.88-19.312A13.623,13.623,0,0,0,873.557,233a6.683,6.683,0,0,0-1.194-4.087,3.239,3.239,0,0,0-1.373-1.086l-.047-.027h-.025a3.414,3.414,0,0,0-1.261-.249h-5.011a3.347,3.347,0,0,1-1.655-.436L861.031,226a9.947,9.947,0,0,1-.608-4.857c0-.132.025-.264.037-.394l.142-.15c.11-.117.212-.249.311-.361a2.771,2.771,0,0,1-.022.294c-.025.157-.067.249-.135.269a4.329,4.329,0,0,0,2.925-1.179c.027-.032.052-.067.077-.1a5.345,5.345,0,0,0,.481-1,2.892,2.892,0,0,1,.366-.668c.164-.214.379-.389.556-.593l.03-.035a4.3,4.3,0,0,0,.673-2.8c.013-2.372-.057-4.984-1.645-6.763a7.488,7.488,0,0,0-5.417-2.106c-2-.065-3.987.294-5.98.3-1.356,0-2.99-.022-3.738,1.1-.366.551-.411,1.271-.81,1.8-.229.3-.581.566-.6.944a.969.969,0,0,0,.13.5v.017a3.525,3.525,0,0,0,2.582,1.732,6.426,6.426,0,0,0-.5.688,6.548,6.548,0,0,0-1,3.489,4.082,4.082,0,0,0,.015.429,6.586,6.586,0,0,0,2.088,4.388c-.02.14-.04.279-.062.416l.045.04q.212.192.441.364l.055.042v.249a4.159,4.159,0,0,1-.015.434c-.015.142,0,.229-.015.344l-.032-.027-2.435-2.033-3.915-3.623s-9.788-7.124-10.279-3.738a2.439,2.439,0,0,0,.466,1.689c1.8,2.741,7.974,5.073,7.974,5.073a52.206,52.206,0,0,1,6.147,8.094c-.087.047-.174.092-.267.135a11.557,11.557,0,0,1-5.392.588c-3.7.576-4.029,4.625-4.009,6.262v.339l-4.9-11.515-.015-.035a2.425,2.425,0,0,0-1.834-1.44C829.668,222.06,821.473,220.911,822.158,223.331Zm20.53,111.884a2.125,2.125,0,0,1,.217-.04l-.022.035Z" transform="translate(-645.416 -177.446)" fill="url(#b)"/><path d="M985.4,716.43s4.645,5.838,5.719,5.719,3.573,2.263,2.146,2.99-9.648,1.191-13.705-1.906v-4.667Z" transform="translate(-763.626 -561.016)" fill="#aca9c9"/><path d="M887.778,717.86s-2.741,4.884-4.645,5.482-3.573,2.741-1.072,3.337,11.438-.715,12.27-2.145v-6.317Z" transform="translate(-689.474 -562.09)" fill="#aca9c9"/><path d="M894.408,468.811l2.367,16.89v7.852a14.071,14.071,0,0,0,.429,3.533c.772,2.973.137,13.344-.222,18.265-.117,1.6-.207,2.631-.207,2.631,1.547-.715,8.1,1.547,8.1,1.547l.663-2.255.528-1.794c1.43-1.072.249-20.251,0-24.669-.162-3.018,1.184-12.8,2.046-18.664.249-1.657.451-2.99.573-3.793.077-.5.12-.775.12-.775a2.609,2.609,0,0,1,.643.775,7.458,7.458,0,0,1,.526,1.1c2.4,6.058,3.489,23.376,3.489,24.918v16.287a17.175,17.175,0,0,0,.655,4.752,24.916,24.916,0,0,1,.645,3.431c.169,1.293.249,2.335.249,2.335.12-.715,7.505-3.932,7.505-3.932V490.086s.356-10.715,1.43-21.325a38.046,38.046,0,0,0-1.37-14.348c-.3-1.014-.593-1.874-.85-2.554-.436-1.159-.748-1.8-.748-1.8H896.65c-.409.077-.748.9-1.054,2.148-.2.837-.374,1.864-.526,2.99-.451,3.317-.71,7.446-.835,9.833A19.9,19.9,0,0,0,894.408,468.811Z" transform="translate(-699.545 -361.022)" fill="#618fd8"/><g transform="translate(197.29 89.113)" opacity="0.1"><path d="M984.8,517.55V490.389s.356-10.715,1.43-21.325a37.149,37.149,0,0,0-2.99-18.7h.476a37.366,37.366,0,0,1,2.99,18.7c-1.059,10.6-1.43,21.325-1.43,21.325V517.55s-7.386,3.217-7.505,3.932a3.564,3.564,0,0,0-.037-.434A69.452,69.452,0,0,1,984.8,517.55Z" transform="translate(-959.542 -450.36)"/><path d="M905.4,722.321a1.851,1.851,0,0,0-.655.135v-.12A4.257,4.257,0,0,1,905.4,722.321Z" transform="translate(-904.74 -654.548)"/><path d="M936.666,568.518c1.43-1.071.249-20.251,0-24.669s2.741-23.229,2.741-23.229a2.081,2.081,0,0,1,.411.424c-.439,2.811-2.891,18.791-2.674,22.805.249,4.408,1.43,23.588,0,24.669l-1.191,4.049-.434-.145Z" transform="translate(-927.85 -503.112)"/></g><path d="M847.268,288.2l-2.492,8.816s-2.621,2.492-4.764,0-3.464-9.173-3.593-10.6-2.026-8.816-2.741-8.816-7.862.476-8.7-2.492c-.668-2.387,7.311-1.246,10.506-.71a2.367,2.367,0,0,1,1.787,1.42l4.9,11.7S844.766,284.512,847.268,288.2Z" transform="translate(-647.536 -228.573)" fill="#f7c4a7"/><path d="M939.227,249.82s-3.1,8.7.835,11.794S926,265.546,926,265.546l2.442-2.322s1.727-6.85.536-12.569Z" transform="translate(-723.413 -210.678)" fill="#f7c4a7"/><path d="M911.093,292.307s3.157-.775,3.157-1.607l2.8,1.607h7.03s5.123,2.858.835,11.438-2.382,29.653-2.382,29.653-15.248-2.741-27.876,1.43c0,0,1.906-9.412,1.191-14.772s1.191-12.865,1.191-12.865l1.071-4.528s-.06-4.236-4.468-2.086c0,0-.655-6.135,3.872-6.85,0,0,5.233.715,6.79-1.906C904.3,291.831,907.759,293.857,911.093,292.307Z" transform="translate(-699.092 -241.372)" opacity="0.1"/><path d="M911.093,291.357s3.157-.775,3.157-1.607l2.051,1.179a3.239,3.239,0,0,0,1.61.429h4.916a3.24,3.24,0,0,1,2.634,1.341c1.129,1.587,2.141,4.717-.548,10.1-4.289,8.577-2.382,29.653-2.382,29.653s-15.248-2.741-27.876,1.43c0,0,1.906-9.412,1.191-14.772s1.191-12.848,1.191-12.848l1.071-4.528s-.06-4.236-4.468-2.086c0,0-.638-5.965,3.685-6.818a1.222,1.222,0,0,1,.366-.025c.924.1,5.233.409,6.613-1.926C904.3,290.879,907.759,292.9,911.093,291.357Z" transform="translate(-699.091 -240.659)" fill="#e14b5a"/><path d="M954.272,311.486s-3.813,2.382-10.007,0c0,0-6.79-2.492-8.936-7.386s10.84.835,10.84.835,2.741,0,3.573-.6S956.415,308.865,954.272,311.486Z" transform="translate(-730.237 -249.948)" opacity="0.1"/><path d="M908.627,261.836s-3.813,2.382-10.007,0c0,0-6.79-2.492-8.936-7.386s-7.147-10.254-7.147-10.254-8.7-3.337-8.223-6.671,10.007,3.693,10.007,3.693l3.813,3.573,12.389,10.483s2.741,0,3.573-.6S910.77,259.214,908.627,261.836Z" transform="translate(-684.592 -200.773)" fill="#f7c4a7"/><path d="M937.49,252.085l10.244-.835a23.517,23.517,0,0,0-1.069,4.852,6.546,6.546,0,0,1-9.17.249A11.642,11.642,0,0,0,937.49,252.085Z" transform="translate(-732.039 -211.752)" opacity="0.1"/><circle cx="6.551" cy="6.551" r="6.551" transform="translate(203.487 32.889)" fill="#f7c4a7"/><path d="M936.16,221.741c-.384-.633.4-1.458.14-2.15-.237-.638-1.179-.748-1.5-1.343-.249-.481,0-1.071-.1-1.6a1.646,1.646,0,0,0-1.58-1.146,5.636,5.636,0,0,0-2.041.451,7.835,7.835,0,0,1-3.362.518,3.524,3.524,0,0,1-2.776-1.762,1,1,0,0,1-.127-.483c.02-.374.364-.63.586-.929.389-.521.434-1.231.787-1.774.723-1.106,2.31-1.079,3.631-1.084,1.944,0,3.877-.364,5.821-.3a7.25,7.25,0,0,1,5.275,2.076c1.545,1.757,1.615,4.328,1.6,6.671a4.246,4.246,0,0,1-.655,2.758c-.179.217-.4.4-.571.618-.374.5-.474,1.136-.825,1.642a4.02,4.02,0,0,1-2.923,1.263c.319-.042.055-2.178,0-2.375C937.339,221.809,937.112,221.828,936.16,221.741Z" transform="translate(-722.527 -180.878)" opacity="0.1"/><path d="M936.16,220.791c-.384-.633.4-1.458.14-2.15-.237-.638-1.179-.748-1.5-1.343-.249-.481,0-1.071-.1-1.6a1.646,1.646,0,0,0-1.58-1.146,5.637,5.637,0,0,0-2.041.451,7.836,7.836,0,0,1-3.362.518,3.524,3.524,0,0,1-2.776-1.762,1,1,0,0,1-.127-.483c.02-.374.364-.63.586-.929.389-.521.434-1.231.787-1.774.723-1.106,2.31-1.079,3.631-1.084,1.944,0,3.877-.364,5.821-.3a7.25,7.25,0,0,1,5.275,2.076c1.545,1.757,1.615,4.328,1.6,6.671a4.246,4.246,0,0,1-.655,2.758c-.179.217-.4.4-.571.618-.374.5-.474,1.136-.825,1.642a4.02,4.02,0,0,1-2.923,1.263c.319-.042.055-2.178,0-2.375C937.339,220.846,937.112,220.876,936.16,220.791Z" transform="translate(-722.527 -180.165)" fill="#281c1c"/><path d="M993.019,314.74s-3.217-8.34-5.719-8.577,4.764,0,4.764,0l2.382,4.288Z" transform="translate(-769.044 -252.903)" opacity="0.1"/><path d="M993.979,314.74s-3.217-8.34-5.719-8.577,4.764,0,4.764,0l2.382,4.288Z" transform="translate(-769.765 -252.903)" fill="#e14b5a"/><path d="M976.65,715.527c.169,1.293.249,2.335.249,2.335.12-.715,7.505-3.932,7.505-3.932v-1.936a3.278,3.278,0,0,0-.563.027,10.63,10.63,0,0,0-3.987,1.63,36.331,36.331,0,0,1-3.2,1.876Z" transform="translate(-761.441 -557.683)" fill="#618fd8"/><path d="M976.65,715.527c.169,1.293.249,2.335.249,2.335.12-.715,7.505-3.932,7.505-3.932v-1.936a3.278,3.278,0,0,0-.563.027,10.63,10.63,0,0,0-3.987,1.63,36.331,36.331,0,0,1-3.2,1.876Z" transform="translate(-761.441 -557.683)" opacity="0.3"/><path d="M904.5,714.24c1.547-.715,8.1,1.547,8.1,1.547l.663-2.255c-1.144-.232-2.28-.521-3.4-.865a11.287,11.287,0,0,1-1.525-.563,10.211,10.211,0,0,0-1.017-.473,5.274,5.274,0,0,0-2.621-.022C904.59,713.214,904.5,714.24,904.5,714.24Z" transform="translate(-707.27 -557.279)" fill="#618fd8"/><path d="M904.5,714.24c1.547-.715,8.1,1.547,8.1,1.547l.663-2.255c-1.144-.232-2.28-.521-3.4-.865a11.287,11.287,0,0,1-1.525-.563,10.211,10.211,0,0,0-1.017-.473,5.274,5.274,0,0,0-2.621-.022C904.59,713.214,904.5,714.24,904.5,714.24Z" transform="translate(-707.27 -557.279)" opacity="0.3"/><path d="M993.005,744.146a.713.713,0,0,0,.409-.473.7.7,0,0,1-.409.83c-1.43.715-9.648,1.191-13.705-1.906v-.356C983.357,745.337,991.575,744.861,993.005,744.146Z" transform="translate(-763.431 -580.395)" fill="#fff" opacity="0.4"/><path d="M881.812,745.335c2.492.6,11.438-.715,12.27-2.145v.356c-.835,1.43-9.768,2.741-12.27,2.145-1.022-.249-1.348-.747-1.246-1.293C880.646,744.8,881.02,745.136,881.812,745.335Z" transform="translate(-689.287 -581.108)" fill="#fff" opacity="0.4"/><path d="M913.314,402.412s-2.621-.835-3.337,0-6.828,2.791-6.828,2.791" transform="translate(-706.256 -324.968)" opacity="0.1"/><rect width="12.746" height="0.269" transform="translate(190.143 44.711) rotate(180)" fill="#8ed16f"/><rect width="12.746" height="0.269" transform="translate(190.143 44.98) rotate(180)" fill="#8ed16f"/><rect width="12.746" height="0.269" transform="translate(190.143 44.98) rotate(180)" opacity="0.1"/><rect width="12.746" height="0.269" transform="translate(190.143 45.249) rotate(180)" fill="#8ed16f"/><rect width="12.746" height="0.269" transform="translate(190.143 45.516) rotate(180)" fill="#8ed16f"/><rect width="12.746" height="0.269" transform="translate(190.143 45.516) rotate(180)" opacity="0.1"/><rect width="12.746" height="0.269" transform="translate(190.143 45.785) rotate(180)" fill="#8ed16f"/><rect width="12.746" height="0.269" transform="translate(190.143 46.051) rotate(180)" fill="#8ed16f"/><rect width="12.746" height="0.269" transform="translate(190.143 46.051) rotate(180)" opacity="0.1"/><rect width="12.746" height="0.269" transform="translate(190.143 46.321) rotate(180)" fill="#8ed16f"/><rect width="12.746" height="0.269" transform="translate(190.143 46.587) rotate(180)" fill="#8ed16f"/><rect width="12.746" height="0.269" transform="translate(190.143 46.587) rotate(180)" opacity="0.1"/><rect width="12.746" height="0.269" transform="translate(190.143 42.568) rotate(180)" fill="#8ed16f"/><rect width="12.746" height="0.269" transform="matrix(-0.769, -0.639, 0.639, -0.769, 196.213, 44.346)" fill="#8ed16f"/><rect width="12.746" height="0.269" transform="matrix(-0.769, -0.639, 0.639, -0.769, 187.278, 40.058)" fill="#8ed16f"/><rect width="12.746" height="0.269" transform="translate(190.143 42.834) rotate(180)" fill="#8ed16f"/><rect width="12.746" height="0.269" transform="translate(190.143 42.834) rotate(180)" opacity="0.1"/><rect width="12.746" height="0.269" transform="translate(190.143 43.106) rotate(180)" fill="#8ed16f"/><rect width="12.746" height="0.269" transform="translate(190.143 43.373) rotate(180)" fill="#8ed16f"/><rect width="12.746" height="0.269" transform="translate(190.143 43.373) rotate(180)" opacity="0.1"/><rect width="12.746" height="0.269" transform="translate(190.143 43.639) rotate(180)" fill="#8ed16f"/><rect width="12.746" height="0.269" transform="translate(190.143 43.908) rotate(180)" fill="#8ed16f"/><rect width="12.746" height="0.269" transform="translate(190.143 43.908) rotate(180)" opacity="0.1"/><rect width="12.746" height="0.269" transform="translate(190.143 44.175) rotate(180)" fill="#8ed16f"/><rect width="12.746" height="0.269" transform="translate(190.143 44.444) rotate(180)" fill="#8ed16f"/><rect width="12.746" height="0.269" transform="translate(190.143 44.444) rotate(180)" opacity="0.1"/><rect width="4.645" height="9.053" transform="translate(180.349 55.741) rotate(-169.48)" fill="#8ed16f"/><ellipse cx="1.906" cy="0.952" rx="1.906" ry="0.952" transform="translate(177.671 52.596) rotate(-79.48)" fill="#8ed16f"/><ellipse cx="1.906" cy="0.952" rx="1.906" ry="0.952" transform="translate(177.671 52.596) rotate(-79.48)" opacity="0.1"/><rect width="4.645" height="9.053" transform="translate(181.13 74.528) rotate(-169.48)" fill="#8ed16f"/><ellipse cx="1.906" cy="0.952" rx="1.906" ry="0.952" transform="translate(178.45 71.381) rotate(-79.48)" fill="#8ed16f"/><ellipse cx="1.906" cy="0.952" rx="1.906" ry="0.952" transform="translate(178.45 71.381) rotate(-79.48)" opacity="0.1"/><rect width="4.645" height="9.053" transform="matrix(0.476, -0.879, 0.879, 0.476, 157.835, 31.588)" fill="#8ed16f"/><ellipse cx="0.954" cy="1.911" rx="0.954" ry="1.911" transform="translate(161.562 31.797) rotate(-61.39)" fill="#8ed16f"/><ellipse cx="0.954" cy="1.911" rx="0.954" ry="1.911" transform="translate(161.562 31.797) rotate(-61.39)" opacity="0.1"/><rect width="4.645" height="9.053" transform="matrix(0.476, -0.879, 0.879, 0.476, 140.352, 112.205)" fill="#8ed16f"/><ellipse cx="0.952" cy="1.906" rx="0.952" ry="1.906" transform="matrix(0.476, -0.879, 0.879, 0.476, 143.283, 112.301)" fill="#8ed16f"/><ellipse cx="0.952" cy="1.906" rx="0.952" ry="1.906" transform="matrix(0.476, -0.879, 0.879, 0.476, 143.283, 112.301)" opacity="0.1"/><rect width="4.645" height="9.053" transform="matrix(0.476, -0.879, 0.879, 0.476, 129.656, 45.677)" fill="#8ed16f"/><ellipse cx="0.952" cy="1.906" rx="0.952" ry="1.906" transform="matrix(0.476, -0.879, 0.879, 0.476, 132.585, 45.769)" fill="#8ed16f"/><ellipse cx="0.952" cy="1.906" rx="0.952" ry="1.906" transform="matrix(0.476, -0.879, 0.879, 0.476, 132.585, 45.769)" opacity="0.1"/><rect width="4.645" height="9.053" transform="matrix(0.476, -0.879, 0.879, 0.476, 143.062, 31.587)" fill="#8ed16f"/><ellipse cx="0.952" cy="1.906" rx="0.952" ry="1.906" transform="matrix(0.476, -0.879, 0.879, 0.476, 145.991, 31.679)" fill="#8ed16f"/><ellipse cx="0.952" cy="1.906" rx="0.952" ry="1.906" transform="matrix(0.476, -0.879, 0.879, 0.476, 145.991, 31.679)" opacity="0.1"/><rect width="4.645" height="9.053" transform="matrix(0.994, -0.109, 0.109, 0.994, 154.041, 44.633)" fill="#8ed16f"/><ellipse cx="0.952" cy="1.906" rx="0.952" ry="1.906" transform="matrix(0.994, -0.109, 0.109, 0.994, 155.627, 47.096)" fill="#8ed16f"/><ellipse cx="0.952" cy="1.906" rx="0.952" ry="1.906" transform="matrix(0.994, -0.109, 0.109, 0.994, 155.627, 47.096)" opacity="0.1"/><rect width="4.645" height="9.053" transform="matrix(0.994, -0.109, 0.109, 0.994, 185.698, 93.911)" fill="#8ed16f"/><ellipse cx="0.952" cy="1.906" rx="0.952" ry="1.906" transform="matrix(0.994, -0.109, 0.109, 0.994, 187.286, 96.375)" fill="#8ed16f"/><ellipse cx="0.952" cy="1.906" rx="0.952" ry="1.906" transform="matrix(0.994, -0.109, 0.109, 0.994, 187.286, 96.375)" opacity="0.1"/><rect width="4.645" height="9.053" transform="matrix(0.476, -0.879, 0.879, 0.476, 138.367, 67.329)" fill="#8ed16f"/><ellipse cx="0.952" cy="1.906" rx="0.952" ry="1.906" transform="matrix(0.476, -0.879, 0.879, 0.476, 141.294, 67.425)" fill="#8ed16f"/><ellipse cx="0.952" cy="1.906" rx="0.952" ry="1.906" transform="matrix(0.476, -0.879, 0.879, 0.476, 141.294, 67.425)" opacity="0.1"/><rect width="4.645" height="9.053" transform="matrix(0.476, -0.879, 0.879, 0.476, 118.275, 61.591)" fill="#8ed16f"/><ellipse cx="0.954" cy="1.911" rx="0.954" ry="1.911" transform="translate(121.86 61.943) rotate(-61.39)" fill="#8ed16f"/><ellipse cx="0.954" cy="1.911" rx="0.954" ry="1.911" transform="translate(121.86 61.943) rotate(-61.39)" opacity="0.1"/><rect width="4.645" height="9.053" transform="matrix(0.476, -0.879, 0.879, 0.476, 111.84, 158.201)" fill="#8ed16f"/><ellipse cx="0.952" cy="1.906" rx="0.952" ry="1.906" transform="matrix(0.476, -0.879, 0.879, 0.476, 114.769, 158.295)" fill="#8ed16f"/><ellipse cx="0.952" cy="1.906" rx="0.952" ry="1.906" transform="matrix(0.476, -0.879, 0.879, 0.476, 114.769, 158.295)" opacity="0.1"/><rect width="4.645" height="9.053" transform="translate(107.411 160.258) rotate(-79.49)" fill="#8ed16f"/><rect width="4.645" height="9.053" transform="translate(107.411 160.258) rotate(-79.49)" opacity="0.05"/><ellipse cx="0.952" cy="1.906" rx="0.952" ry="1.906" transform="translate(110.228 159.447) rotate(-79.49)" fill="#8ed16f"/><ellipse cx="0.952" cy="1.906" rx="0.952" ry="1.906" transform="translate(110.228 159.447) rotate(-79.49)" opacity="0.1"/><rect width="4.645" height="9.053" transform="translate(108.245 162.997) rotate(-79.49)" fill="#8ed16f"/><ellipse cx="0.952" cy="1.906" rx="0.952" ry="1.906" transform="translate(111.06 162.185) rotate(-79.49)" fill="#8ed16f"/><ellipse cx="0.952" cy="1.906" rx="0.952" ry="1.906" transform="translate(111.06 162.185) rotate(-79.49)" opacity="0.1"/><rect width="4.645" height="9.053" transform="matrix(0.476, -0.879, 0.879, 0.476, 121.232, 169.942)" fill="#8ed16f"/><ellipse cx="0.952" cy="1.906" rx="0.952" ry="1.906" transform="matrix(0.476, -0.879, 0.879, 0.476, 124.163, 170.036)" fill="#8ed16f"/><ellipse cx="0.952" cy="1.906" rx="0.952" ry="1.906" transform="matrix(0.476, -0.879, 0.879, 0.476, 124.163, 170.036)" opacity="0.1"/><rect width="4.645" height="9.053" transform="translate(116.805 171.996) rotate(-79.49)" fill="#8ed16f"/><rect width="4.645" height="9.053" transform="translate(116.805 171.996) rotate(-79.49)" opacity="0.05"/><ellipse cx="0.952" cy="1.906" rx="0.952" ry="1.906" transform="translate(119.619 171.185) rotate(-79.49)" fill="#8ed16f"/><ellipse cx="0.952" cy="1.906" rx="0.952" ry="1.906" transform="translate(119.619 171.185) rotate(-79.49)" opacity="0.1"/><rect width="4.645" height="9.053" transform="translate(117.638 174.738) rotate(-79.49)" fill="#8ed16f"/><ellipse cx="0.952" cy="1.906" rx="0.952" ry="1.906" transform="translate(120.455 173.926) rotate(-79.49)" fill="#8ed16f"/><ellipse cx="0.952" cy="1.906" rx="0.952" ry="1.906" transform="translate(120.455 173.926) rotate(-79.49)" opacity="0.1"/><rect width="4.645" height="9.053" transform="matrix(0.476, -0.879, 0.879, 0.476, 135.323, 162.376)" fill="#8ed16f"/><ellipse cx="0.952" cy="1.906" rx="0.952" ry="1.906" transform="matrix(0.476, -0.879, 0.879, 0.476, 138.249, 162.468)" fill="#8ed16f"/><ellipse cx="0.952" cy="1.906" rx="0.952" ry="1.906" transform="matrix(0.476, -0.879, 0.879, 0.476, 138.249, 162.468)" opacity="0.1"/><rect width="4.645" height="9.053" transform="translate(130.894 164.431) rotate(-79.49)" fill="#8ed16f"/><rect width="4.645" height="9.053" transform="translate(130.894 164.431) rotate(-79.49)" opacity="0.05"/><ellipse cx="0.952" cy="1.906" rx="0.952" ry="1.906" transform="translate(133.709 163.62) rotate(-79.49)" fill="#8ed16f"/><ellipse cx="0.952" cy="1.906" rx="0.952" ry="1.906" transform="translate(133.709 163.62) rotate(-79.49)" opacity="0.1"/><rect width="4.645" height="9.053" transform="translate(131.728 167.173) rotate(-79.49)" fill="#8ed16f"/><ellipse cx="0.952" cy="1.906" rx="0.952" ry="1.906" transform="translate(134.545 166.361) rotate(-79.49)" fill="#8ed16f"/><ellipse cx="0.952" cy="1.906" rx="0.952" ry="1.906" transform="translate(134.545 166.361) rotate(-79.49)" opacity="0.1"/></g></svg>