<svg xmlns="http://www.w3.org/2000/svg" width="258.838" height="186.664" viewBox="0 0 258.838 186.664"><g transform="translate(0 0)"><circle cx="9.035" cy="9.035" r="9.035" transform="translate(41.69 13.156)" fill="#2f2e41"/><path d="M235.615,533.751l5.551-19.251,1.89.591s-2.244,14.409-5.787,18.07Z" transform="translate(-212.408 -402.785)" fill="#2f2e41"/><path d="M304.549,223.154s.709,7.559-.945,9.685,1.063,6.26,1.063,6.26l4.96,5.905,7.323-3.307,1.063-6.142L317.3,231.3a7.537,7.537,0,0,1-1.417-6.968C316.95,219.847,304.549,223.154,304.549,223.154Z" transform="translate(-260.202 -195.53)" fill="#ffb9b9"/><path d="M304.549,223.154s.709,7.559-.945,9.685,1.063,6.26,1.063,6.26l4.96,5.905,7.323-3.307,1.063-6.142L317.3,231.3a7.537,7.537,0,0,1-1.417-6.968C316.95,219.847,304.549,223.154,304.549,223.154Z" transform="translate(-260.202 -195.53)" opacity="0.1"/><path d="M166.73,575.185v4.842l6.5,1.3-.591-8.031Z" transform="translate(-118.131 -406.188)" fill="#ffb9b9"/><path d="M230.14,571.572l-1.417,6.732,2.835,2.008,4.96-3.661-.591-5.787Z" transform="translate(-162.054 -404.465)" fill="#ffb9b9"/><path d="M319.455,724.151a5.008,5.008,0,0,0-7.086-1.565s-.827,4.635-1.653,4.99-5.433,7.086,0,7.677,8.149-1.181,8.149-1.181-1.063.915.591.442.945-3.071.945-3.071Z" transform="translate(-263.77 -549.604)" fill="#2f2e41"/><path d="M383.881,718.165s-3.661,2.6-4.252,1.417a1.614,1.614,0,0,0-1.535-1.063s-3.307,12.466-1.181,13.057a7.166,7.166,0,0,0,4.134-.214s2.835-1.985,2.835-.45,7.913,1.425,11.22,1.307,1.535-2.6,1.535-2.6l-4.37-4.252-4.96-7.2S385.062,716.157,383.881,718.165Z" transform="translate(-312.015 -546.452)" fill="#2f2e41"/><path d="M283.022,445.617l4.96,47.6s2.716,29.054,3.189,29.526,3.543,2.008,10.275,0l-1.535-38.03,2.835-23.621,6.5,16.3s1.535,43.817,2.6,43.817,7.559,2.126,9.094-.472,1.3-30.589,1.3-30.589-.709-44.172-5.905-45.589S283.022,445.617,283.022,445.617Z" transform="translate(-245.997 -352.917)" fill="#2f2e41"/><circle cx="8.149" cy="8.149" r="8.149" transform="translate(42.576 15.695)" fill="#ffb9b9"/><path d="M278.806,262.589s-.827-5.079-.827-6.023-3.661-1.535-3.661-1.535-2.835-3.189-3.425-2.716-9.567,6.5-10.984,7.323-2.953,4.37-2.835,4.606,7.441,15.59,7.441,15.59,3.189,9.448.945,14.409-5.079,14.763-.945,16.771,24.212,6.378,27.873,2.6,6.26-4.842,7.2-4.842-3.9-16.417-2.835-17.952-.472-11.1-.472-11.1l5.433-15.236s-.472-8.5-11.22-10.393l-6.43-3.117Z" transform="translate(-227.608 -216.068)" fill="#575a89"/><path d="M252.134,455.983s-.591,5.669-.591,7.323-2.835,11.338,1.3,12.519,3.779-12.873,3.779-12.873v-7.2Z" transform="translate(-223.023 -361.157)" fill="#ffb9b9"/><path d="M411.32,438.324s.709,5.433.354,6.614,3.425,11.456-1.653,12.047-3.779-12.283-3.779-12.283v-6.378Z" transform="translate(-333.194 -348.813)" fill="#ffb9b9"/><path d="M252.227,529.852l3.425-18.188h1.063a7.154,7.154,0,0,1,1.063,6.85,86.27,86.27,0,0,0-2.6,11.338Z" transform="translate(-224.178 -400.775)" fill="#2f2e41"/><path d="M252.74,291.647l-1.772,1.417s-2.362,37.557-1.772,40.392-2.126,6.85.236,7.2,5.2,1.89,6.5.945,1.535-4.37,2.008-5.2,1.3-10.63,1.3-10.63,2.48-9.8.945-17.125-2.953-14.763-2.953-14.763Z" transform="translate(-221.503 -244.89)" fill="#575a89"/><path d="M386.444,281.517l5.433,4.606,4.134,24.094s2.6,18.779.591,19.015-5.079-.354-6.378,0a2.766,2.766,0,0,1-2.362-.591s-1.417-7.559-1.417-7.677-.945-8.74-.945-8.74l-1.181-9.685,1.772-10.629Z" transform="translate(-317.767 -237.713)" fill="#575a89"/><path d="M213.244,596.836s-.768,2.205-1.826,5.207c-.491,1.4-1.045,2.966-1.616,4.566-.367,1.035-.74,2.082-1.108,3.1-.586,1.636-1.155,3.207-1.652,4.555-.657,1.78-1.189,3.175-1.475,3.825-1.3,2.953-25.038-1.772-26.928-2.953s-2.362-5.2-2.6-10.866c0-.03,0-.059,0-.089a20.66,20.66,0,0,1,.749-4.848c.243-1,.536-2.072.862-3.185.437-1.494.933-3.06,1.452-4.619,2.227-6.7,4.853-13.242,4.853-13.242s4.606-3.189,6.26-5.315,10.748-3.779,10.748-3.779c2.6.118,8.5,10.157,10.866,13.228S213.244,596.836,213.244,596.836Z" transform="translate(-170.196 -441.54)" fill="#3f3d56"/><circle cx="1.063" cy="1.063" r="1.063" transform="translate(28.757 135.218)" fill="#2f2e41"/><circle cx="0.591" cy="0.591" r="0.591" transform="translate(30.883 136.871)" fill="#2f2e41"/><path d="M215.34,656.336c-.491,1.4-1.045,2.966-1.616,4.566l-32.153-10.455c.437-1.494.933-3.06,1.452-4.619Z" transform="translate(-174.117 -495.833)" fill="#f2f2f2"/><path d="M208.695,682.977c-.586,1.636-1.155,3.207-1.652,4.555l-31-10.081a20.659,20.659,0,0,1,.749-4.848Z" transform="translate(-170.196 -514.803)" fill="#f2f2f2"/><path d="M258.3,599.588s2.362,10.393.945,19.605,3.543,17.834,3.543,17.834" transform="translate(-228.485 -463.071)" fill="none" stroke="#2f2e41" stroke-miterlimit="10" stroke-width="3"/><path d="M241.873,602.425s-4.606,16.771-4.724,19.133-2.008,19.251-4.37,21.023" transform="translate(-210.399 -465.081)" fill="none" stroke="#2f2e41" stroke-miterlimit="10" stroke-width="3"/><path d="M307.052,177.713s-1.845-4.8.83-6.364l.738,2.121s6.733-4.058,8.485-3.136l-1.66,2.214s7.84,0,8.393,3.044l-2.767.092s2.951,1.937,3.044,5.073l-5.9.369,2.859,1.66s-10.7,1.476-13.281-2.767Z" transform="translate(-262.584 -158.842)" fill="#2f2e41"/><path d="M303.078,190.028s2.126,4.252,4.96,3.189,0-4.96,0-4.96l-1.89-.945Z" transform="translate(-260.207 -170.967)" fill="#2f2e41"/><path d="M582.429,217.375,543.88,169.2a12.943,12.943,0,0,1-6.234,3.148,13.664,13.664,0,0,1-15.83-11.069,13.981,13.981,0,0,1,4.827-13.619L513.5,131.237l-74.883,64,68.931,86.138Z" transform="translate(-356.237 -131.237)" fill="#f2f2f2"/><circle cx="10.868" cy="10.868" r="10.868" transform="translate(167.426 17.09)" fill="#f2f2f2"/><rect width="5.086" height="14.805" transform="translate(106.968 80.23) rotate(-49.171)" fill="#2d7aff"/><rect width="5.086" height="13.124" transform="translate(178.983 149.049) rotate(-49.171)" fill="#2d7aff"/><path d="M600.7,409.895v.3q-.01,1.124-.064,2.238a49.841,49.841,0,0,1-99.516.651q-.1-1.582-.1-3.187a49.594,49.594,0,0,1,9.165-28.81q.717-1.017,1.492-2c.356-.454.722-.9,1.092-1.339a49.851,49.851,0,0,1,69.459-6.591c.6.485,1.19.987,1.766,1.5q.692.615,1.36,1.258a49.707,49.707,0,0,1,15.176,31.79Q600.7,407.779,600.7,409.895Z" transform="translate(-400.451 -293.356)" fill="#3f3d56"/><path d="M535.614,494.405a56.114,56.114,0,0,1-41.141-94.273l1.243,1.153a54.419,54.419,0,0,0,78.965,74.89l1.217,1.18a55.67,55.67,0,0,1-40.284,17.05Z" transform="translate(-385.205 -321.753)" fill="#2d7aff"/><rect width="14.24" height="14.24" transform="translate(144.306 171.465)" fill="#2d7aff"/><path d="M511.676,422.1a.275.275,0,0,1,.068.041c.268.22-.068.644-.027.993.047.448.644.546,1.1.59s1.021.41.807.81a5,5,0,0,1-3.435-.437,49.6,49.6,0,0,0-9.165,28.809q0,1.607.1,3.187a1.286,1.286,0,0,0,.309.166,6.582,6.582,0,0,1,1.044.288c.248.146.414.4.661.539.709.387,1.692-.356,2.353.105a6.084,6.084,0,0,1,.485.5c.61.529,1.614.173,2.319.57a2.751,2.751,0,0,1,.932,1.224,3.939,3.939,0,0,0,2.889,2.377,7.782,7.782,0,0,1,1.227.041c.4.092.793.441.729.844-.112.7.231,1.455.139,2.15-.166,1.271-1.967,1.827-2.119,3.1a7.648,7.648,0,0,1-.047.837c-.081.332-.332.6-.42.936a1.778,1.778,0,0,0,.773,1.675,4.571,4.571,0,0,1,1.356,1.38,7.112,7.112,0,0,1,.237,2.038,4.877,4.877,0,0,0,2.811,3.3,2.935,2.935,0,0,1,1.1.8,4.428,4.428,0,0,1,.42,1.726c.278,1.434,1.485,2.618,1.519,4.079a8.675,8.675,0,0,1-.9,2.963,6.839,6.839,0,0,0-.309,3.2,50.081,50.081,0,0,0,6.147,4.459,1.791,1.791,0,0,0,.254-.57,1.126,1.126,0,0,0-.526-1.166,2.787,2.787,0,0,0,.973-.624.954.954,0,0,0,.176-1.078,1.884,1.884,0,0,0,1.7-.346,1.517,1.517,0,0,0,.169-1.38,5.692,5.692,0,0,1-.339-1.4,25.256,25.256,0,0,0,4.143-.139,2.689,2.689,0,0,0-1.261-1.58,2.184,2.184,0,0,0,1.387-1.451,3.7,3.7,0,0,0,.027-1.875,1,1,0,0,1-.02-.488.961.961,0,0,1,.495-.478q1.546-.89,3.092-1.777a1.864,1.864,0,0,0,.495-.363,1.476,1.476,0,0,0,.109-1.427,7.19,7.19,0,0,1-.5-1.41c-.19-1.482,1.4-2.546,1.933-3.943a5.92,5.92,0,0,0,.292-1.726,2.049,2.049,0,0,0-.434-1.763c-.464-.39-1.187-.3-1.672-.665-.444-.332-.6-.973-1.082-1.241-.441-.244-.99-.088-1.482-.2-.861-.2-1.4-1.193-2.285-1.285-.5-.054-1.058.19-1.465-.1-.359-.258-.373-.77-.441-1.2a3.362,3.362,0,0,0-2.712-2.719,3.786,3.786,0,0,1-1.505-.332c-.441-.285-.641-.817-.99-1.214a4.143,4.143,0,0,0-2.261-1.054q-1.678-.392-3.353-.787c-.593-.142-1.36-.217-1.682.305a2.291,2.291,0,0,0-.2.627A1.945,1.945,0,0,1,514,461.9a2.155,2.155,0,0,0-1.268-.983,8,8,0,0,1-1.031-.244,1.444,1.444,0,0,1-.624-2,1.8,1.8,0,0,0-.309-2.16,2.918,2.918,0,0,0-2.16-.587c-.2-.437.136-.929.5-1.248s.8-.627.878-1.1c.125-.746-.827-1.312-1.549-1.092a2.7,2.7,0,0,0-1.488,1.617,4.876,4.876,0,0,1-.6,1.149,1.178,1.178,0,0,1-1.139.468c-.6-.153-.824-.861-.956-1.458a9.506,9.506,0,0,1-.319-2.445,3.191,3.191,0,0,1,.922-2.224c.987-.909,2.506-.821,3.838-.675a.978.978,0,0,1,.1-1.288,1.465,1.465,0,0,1,1.329-.326,1.823,1.823,0,0,1,1.027.614,9.512,9.512,0,0,1,.773,1.611c.288.526.932.973,1.458.692a1.23,1.23,0,0,0,.417-1.38,5.124,5.124,0,0,1-.315-1.509c.078-.98,1.1-1.573,2-1.977s1.926-.949,2.068-1.926a1.8,1.8,0,0,1,.108-.556,1.088,1.088,0,0,1,.4-.38,33.965,33.965,0,0,1,8.286-4.435c.156-.051.173,0,.332-.034.224-.129.075-.485-.139-.627s-.5-.254-.553-.505c-.037-.183.071-.366.1-.553a.69.69,0,0,0-.905-.7c-.241-.319.234-.688.62-.8a16.949,16.949,0,0,1,3.543-.576.631.631,0,0,1,.4.068.48.48,0,0,1,.031.658,3.711,3.711,0,0,1-.539.492,1.481,1.481,0,0,0-.386,1.488,3.379,3.379,0,0,0,2,.536c.692-.112,1.305-.892.98-1.512-.3-.58-1.214-.712-1.37-1.346-.183-.743.868-1.4.631-2.129-.1-.319-.42-.509-.665-.736a2.006,2.006,0,0,1-.437-2.217,2.526,2.526,0,0,1-2.211-.692c-.529-.532-.949-1.377-1.7-1.349-.688.02-1.282.824-1.926.58-.159-.061-.326-.183-.478-.112a.4.4,0,0,0-.18.295c-.163.783.119,1.675-.309,2.353-.464.736-1.539.837-2.1,1.5-.305.359-.424.844-.705,1.224s-.875.624-1.214.292a1.671,1.671,0,0,0-.454-2.034,4.37,4.37,0,0,0-1-.488,5.956,5.956,0,0,1-1.122-.624,1.111,1.111,0,0,1-.41-.441,1.013,1.013,0,0,1,.027-.7,2.855,2.855,0,0,1,2.268-1.878c.448-.061.97-.041,1.268-.383.156-.18.237-.454.468-.526a.682.682,0,0,1,.431.051l1.675.59a1.148,1.148,0,0,0,.6.1.4.4,0,0,0,.349-.424c-.054-.278-.481-.41-.441-.692a.44.44,0,0,1,.139-.237,5.991,5.991,0,0,1,4.75-1.875c.21.349-.122.759-.4,1.054s-.5.827-.163,1.054a.893.893,0,0,0,.444.1,3.875,3.875,0,0,1,1.187.359c.58.251,1.149.529,1.705.827a2.149,2.149,0,0,1,.041-1.1.746.746,0,0,1,.882-.478c.332.129.5.57.858.61.471.054.658-.644.461-1.078s-.59-.793-.62-1.271c-.024-.319.1-.715-.156-.909a.675.675,0,0,0-.3-.108l-6.391-1.173c-.38-.071-.926-.017-.943.366-.01.217.183.431.1.627s-.39.193-.607.268a.824.824,0,0,0-.475.871,2.375,2.375,0,0,0,.4.98c-.417-.173-1.044-.2-1.461-.38a5.624,5.624,0,0,0-.366-1.407.5.5,0,0,0-.648-.4c-.549.085-1.1.166-1.648.251a.637.637,0,0,0-.376.146c-.214.227,0,.59-.01.9a.845.845,0,0,1-.654.729,2.466,2.466,0,0,1-1.044-.014l-2.306-.356a3.777,3.777,0,0,0,1.743-1.166c.305-.359.468-1.031.027-1.2a1.052,1.052,0,0,0-.4-.031c-1.044.007-1.868-.865-2.845-1.234a2.8,2.8,0,0,0-.96-.176Z" transform="translate(-400.452 -336.372)" fill="#2d7aff"/><path d="M685.507,438.66a1.224,1.224,0,0,1-1.038.492c-1.061-.092-1.509-1.621-2.56-1.794a.41.41,0,0,0-.278.027c-.156.085-.183.3-.193.471a5.846,5.846,0,0,0,.261,2.59c.5,1.18,1.79,2.17,1.519,3.421a5.327,5.327,0,0,1-2.56-3.882,27.317,27.317,0,0,0-1.017-4.7c-.471.6-1.455.105-1.882-.526-.407-.6-.658-1.288-1.051-1.9a2.333,2.333,0,0,0-1.716-1.18,3.075,3.075,0,0,0-1.99.977,4.606,4.606,0,0,0-1.237,1.377,6.255,6.255,0,0,0-.319,2.675,4.084,4.084,0,0,1-.9,2.729,1.979,1.979,0,0,1-2.635.319,2.972,2.972,0,0,1-.736-1.326,64.511,64.511,0,0,1-1.994-7.113c-.122.549-.607,1.258-1.068.936a.952.952,0,0,1-.244-.319,7.121,7.121,0,0,0-4.062-2.855c-1.607-.522-3.3-.766-4.889-1.343a12.5,12.5,0,0,1-2.54-1.265,2,2,0,0,0-.122,2.041,1.635,1.635,0,0,0,1.838.77c.353-.115.651-.359,1-.481a.782.782,0,0,1,.973.278c.149.322-.075.712.037,1.051.166.512.943.553,1.214,1.021a.945.945,0,0,1-.254,1.092,4.569,4.569,0,0,1-1.024.631,20.375,20.375,0,0,0-2.946,2.556,3.558,3.558,0,0,1-3.591.919c.281-1.434-1.424-2.485-1.739-3.913-.105-.471-.051-.97-.2-1.427a4.643,4.643,0,0,0-1.285-1.621,6.37,6.37,0,0,1-1.746-4.628,6.417,6.417,0,0,0,0-1.766,1.324,1.324,0,0,0-1.2-1.105c-1.346.061-3.045.163-3.75-.987a1.058,1.058,0,0,1,0-1.326,1.28,1.28,0,0,1,.973-.166c1.014.1,2.024.2,3.038.3a3.378,3.378,0,0,0,2.085-.244c.61-.37.875-1.356.309-1.794-.41-.319-1.149-.3-1.271-.807-.1-.424.37-.9.115-1.258-.18-.251-.587-.183-.834.007a5.451,5.451,0,0,1-.7.614,2.141,2.141,0,0,1-1.583-.153c-.522-.163-1.221-.176-1.471.309-.285.539.247,1.251-.031,1.794-.373.715-1.628.309-2.15.926-.6.705.407,1.763.207,2.665a1.661,1.661,0,0,1-1.638-.092,1.585,1.585,0,0,1-.685-1.478c.047-.407.261-.824.119-1.207a1.409,1.409,0,0,0-.715-.654q-1.475-.819-2.95-1.631a1.331,1.331,0,0,0,.505,1.519,5.247,5.247,0,0,1,1.258,1.17,1.537,1.537,0,0,1-.576,2.028.357.357,0,0,1-.295.051.409.409,0,0,1-.19-.254,6.271,6.271,0,0,0-2.55-3.34,3.027,3.027,0,0,0-3.865.617c-.193.278-.326.6-.495.892a5.146,5.146,0,0,1-4.635,2.255.893.893,0,0,1-.505-.119c-.292-.2-.278-.627-.234-.98.064-.5.125-.993.19-1.492a1.2,1.2,0,0,1,.329-.817c.336-.264.817-.1,1.244-.105a1.567,1.567,0,0,0,1.427-1.1,1.771,1.771,0,0,0-.495-1.763c-.193-.183-.454-.414-.353-.661a.549.549,0,0,1,.383-.258c.763-.22,1.573-.278,2.323-.542a2.415,2.415,0,0,0,1.661-1.573c.054-.237.078-.526.292-.644a.944.944,0,0,1,.339-.068,1.65,1.65,0,0,0,1.414-1.719,1.078,1.078,0,0,1,1.214.2,3.373,3.373,0,0,0,1.078.736c.79.217,1.553-.485,2.373-.488a2.969,2.969,0,0,0,1.024,0c.329-.119.526-.444.776-.685s.7-.39.929-.129c-.068-.492-.132-.98-.2-1.468a2.886,2.886,0,0,0,2.35-.427l-2.56-.865a.552.552,0,0,1-.241-.129c-.187-.2,0-.512.149-.739.363-.546.424-1.444-.173-1.716a1.457,1.457,0,0,0-1.261.254c-.624.346-1.248.7-1.872,1.041-.058.356.376.559.644.8a1.08,1.08,0,0,1-.705,1.888,1.353,1.353,0,0,1,.241,1.143l-1.258.092a.54.54,0,0,1-.407-.081c-.136-.119-.115-.329-.149-.505a1.091,1.091,0,0,0-.922-.8,3.184,3.184,0,0,0-1.285.119.783.783,0,0,1-.556-.014.555.555,0,0,1-.217-.278,1.418,1.418,0,0,1,.285-1.363,7.807,7.807,0,0,1,1.071-.987,6.246,6.246,0,0,0,1.861-2.882c.692-.292,1.407-.685,2.1-.976a8.4,8.4,0,0,1,1.746-.587,8.251,8.251,0,0,1,1.712-.081c.78.014,1.563.027,2.343.044a5.639,5.639,0,0,1,2.051.295,1.914,1.914,0,0,1,1.251,1.529.469.469,0,0,1-.153.431.549.549,0,0,1-.295.068c-.648.02-.922.183-1.57.207a2.649,2.649,0,0,0,1.468.977c1.051.136,1.807-.953,2.292-1.9a.925.925,0,0,0,.966.858,1.949,1.949,0,0,0,.729-.285,14.34,14.34,0,0,1,6.8-1.756.732.732,0,0,1,.559-.807c.485-.095.919.322,1.153.756a4.067,4.067,0,0,0,.749,1.261c.37.325,1.085.309,1.231-.159.142-.451-.329-.837-.719-1.105s-.8-.756-.539-1.149a34.861,34.861,0,0,1,6.049-.973,2.574,2.574,0,0,0,1.017-.176.791.791,0,0,0,.475-.837,2.312,2.312,0,0,1-2.407-.909,20.7,20.7,0,0,1,6.313.146l1.766,1.5c-.336.349-.783.678-.539,1.027a.752.752,0,0,0,.62.214c.427.007.854.017,1.278.017a49.706,49.706,0,0,1,15.176,31.79,1.5,1.5,0,0,0-1.275,1.661,6.594,6.594,0,0,0,1.238,2.431,3.707,3.707,0,0,1,.21.4Z" transform="translate(-485.322 -319.586)" fill="#2d7aff"/><line x2="258.838" transform="translate(0 185.664)" fill="none" stroke="#3f3d56" stroke-miterlimit="10" stroke-width="2"/><circle cx="4.301" cy="4.301" r="4.301" transform="translate(102.485 14.724)" fill="none" stroke="#3f3d56" stroke-miterlimit="10" stroke-width="2"/><circle cx="4.301" cy="4.301" r="4.301" transform="translate(229.572 96.631)" fill="none" stroke="#3f3d56" stroke-miterlimit="10" stroke-width="2"/><circle cx="4.301" cy="4.301" r="4.301" transform="translate(200.21 53.783)" fill="none" stroke="#3f3d56" stroke-miterlimit="10" stroke-width="2"/><circle cx="4.827" cy="4.827" r="4.827" transform="translate(171.465 89.591)" fill="#3f3d56"/><circle cx="6.362" cy="6.362" r="6.362" transform="translate(185.434 72.542)" fill="#fff"/><path d="M784.684,373.092a9,9,0,0,0-12.72.158c-3.469,3.556-8.422,21.515-8.422,21.515s17.83-5.4,21.3-8.952A9,9,0,0,0,784.684,373.092Zm-9.345,9.58a4.169,4.169,0,1,1,5.895-.073,4.169,4.169,0,0,1-5.895.073Z" transform="translate(-586.453 -300.784)" fill="#57b894"/></g></svg>